<svg xmlns="http://www.w3.org/2000/svg" width="876" height="270.667" fill="#f71c1cff" viewBox="0 0 657 203"><path d="M383.5 8.6c-1.1.1-6.9.8-13 1.4-24.7 2.4-43 6.9-64.3 15.6-12.9 5.3-14 5.8-34.9 16-21.8 10.6-28.1 13.3-47.3 19.7-18.4 6.2-23.9 7.3-50.5 10.2-28.3 3.2-39 4.6-62 8.6-6.6 1.2-13.3 2.3-15 2.6C81.4 85 49.6 95 34 102.2 23.6 107 5.3 118.5 3.9 121.1c-1.7 3.3 0 4.2 3.4 1.9 10.9-7.1 30.4-15.3 51.2-21.5 3.3-1 6.9-2.1 8-2.5 1.1-.5 5.6-1.6 10-2.5s8.7-1.9 9.5-2.2 3.8-.9 6.5-1.3c2.8-.5 9.7-1.8 15.5-2.9s13.7-2.4 17.5-3c3.9-.5 10.6-1.5 15-2.2 17.8-2.6 70.6-6.9 85.1-6.9 10 0 13-1 22.4-7.5 7-4.8 10.2-6.8 28.8-17.3 24.1-13.8 39-19.6 67.7-26.5 5.6-1.4 8.6-2 22.5-4.6 3-.6 13.6-1.8 23.5-2.6 16.5-1.5 19.6-1.5 37.5.1 10.7.9 19.8 1.8 20.2 2 .4.3 3.7.9 7.5 1.4 19.1 2.7 43.4 9.6 45.6 13.1 2.4 3.8-3.6 13-9.6 14.7-7.6 2.3-27.3 5.3-46.2 7.2-6 .6-14.9 1.5-19.6 2.1-4.7.5-11.2.9-14.5.9-7.9.1-16.9 2.2-16.9 4.1 0 1.6 2.4 1.7 20 0 6.6-.6 18.3-1.1 26-1.1s19.9-.4 27-1c7.2-.6 37.3-1.5 67-2.1 55.5-1.2 83.7-2.2 89-3.4 1.7-.3 6.2-1.3 10-2.1 3.9-.9 8.4-2.2 10-3.1 8.9-4.7 10.5-11.1 1.6-6.7-2.5 1.2-5.7 1.5-16.4 1.1-11.9-.4-20.6-1.7-37.2-5.7-2.2-.5-8.9-2.1-15-3.5-6-1.5-15.5-3.7-21-5-27.8-6.7-32.4-7.7-37-8.7-2.7-.6-7-1.6-9.5-2.3-26.6-7.4-106.8-15.7-125.5-12.9"/><path d="M352.7 37.2c-1.6 3.8-5.8 18-6.5 22.1-.6 3.9-3.5 5.5-12.1 6.7-4 .6-7.6 1.2-8 1.5-.4.2-5 .9-10.2 1.5s-12.1 1.5-15.4 2c-9.9 1.6-21.5 3.1-29.7 3.8-8 .7-9.9 1.5-8.1 3.3 1.4 1.4 15.2.7 30.3-1.5 6.3-.9 16.5-2.1 22.5-2.5 6.1-.5 14.6-1.4 19-2s10.3-1.2 13-1.4c5-.2 5-.2 5.8-11.2.5-6.1 1.4-13.6 2.2-16.9 1.9-8.4.1-12-2.8-5.4m279.2 40.5c-3.8 7.5-8 9.7-21.3 11.2-6.1.6-14.5 1.7-18.7 2.2-7.7 1.1-7.7 1.1-13-3.1-7.3-5.8-15.8-9.5-25.6-11-7.3-1.2-9.3-1.1-17.5.4-15.4 3-24.6 8.6-35.3 21.6-7.3 8.8-8.4 9.3-21 10.4-3.8.4-11.5 1.1-17 1.6s-15.4 1.5-22 2.1-17.6 1.7-24.5 2.4c-13.1 1.4-25.1 2.5-56 5-31.8 2.6-42.2 3.5-51 4.5-4.7.5-19.7 1.7-33.5 2.5-13.7.8-29.7 2-35.5 2.5-5.8.6-16.6 1.5-24 2.1-27.1 2.1-35.6 2.8-42.2 3.5-6.7.7-6.7.7-14-6.3-8.6-8.3-13.6-11.6-20.8-13.7-11.3-3.4-19.6-1.8-33 6.3-8.5 5.2-7.6 5-33 8.1-4.7.5-12.4 1-17.2 1-8.4 0-11.2 1-9.1 3.1 1.2 1.2 6.5 1.2 33.3-.1 45.9-2.4 50.9-2.4 53.2-.3 2.7 2.4 16.8 21.2 16.8 22.4 0 1.3-8.6 14.6-12.7 19.6-3.4 4.3-3.4 4.3-18.3 4.3-8.2 0-15.1.4-15.4.9-1.3 2 .8 4.1 7.4 7.5 6.5 3.4 7.2 3.6 17 3.6 13.9 0 18.7-1.7 26.5-9.5 3.3-3.3 7.1-7.5 8.5-9.4 2.6-3.4 2.6-3.4 45.5-3.2 23.7.1 48.2.6 54.5 1.1s22.1 1 35 1.1 35.2.5 49.5 1 55 1.3 90.5 1.9c35.5.5 66.6 1.4 69.1 1.9 2.6.6 8.7 2.8 13.7 5.1 13.4 6 21.8 7.6 31.2 6.1 8-1.4 20-6.5 28.4-12.2 5.2-3.6 6.5-5.4 4.4-6.1-.7-.2-11-.1-22.8.3-17.1.6-21.9.5-23.5-.5-3.5-2.3-23.5-29.5-23.5-32 0-1.3 2.8-6.1 6.3-10.7s8.2-11.2 10.6-14.7c2.3-3.4 5.3-6.9 6.6-7.8 2.7-1.7 20.2-2.9 58.5-4 27.8-.8 31.9-2.2 36.9-13.4 2.1-4.6 2.8-12.4 1.2-13.4-.5-.3-2 1.5-3.2 4.1m-143.6 47.5c1.2 1 1.8 3.8 2.3 11.3.6 8.1 1.3 11.5 4.1 17.8 1.8 4.3 3.3 8.5 3.3 9.2s-1.2 1.6-2.6 1.9c-3.1.8-142.2.7-148.2-.1-2.3-.3-4.1-.7-3.9-.9.9-1 17.3-3.5 25.7-4 5.2-.3 11.9-.9 14.9-1.5 3-.5 7.7-.9 10.4-.9s7.7-.4 11.1-1c3.3-.5 13.3-1.7 22.1-2.5 8.8-.9 19-2 22.7-2.5 3.7-.6 9.8-1 13.7-1 7.7 0 11.8-1.3 12.6-4.2 1.1-3.2-.5-5.6-5.2-7.9-4.3-2.1-5.3-2.2-19.2-1.5-8 .4-31.5 1.2-52.1 1.7-104.9 2.7-149 4.3-162.5 5.8-4.9.6-12.4 1.1-16.5 1.1-7.3 0-11.1.4-35 3.7-6.3.8-12.8 1.4-14.5 1.2-2.6-.4-3-.8-3-3.4 0-2.9.2-3 4.5-3.2 2.5-.2 10.4-.8 17.5-1.4 7.2-.6 20.9-1.5 30.5-2 38.4-1.8 52.9-2.7 53.8-3.3.6-.3 10.6-1.1 22.4-1.7 11.7-.6 27.8-1.4 35.8-1.9 8-.4 22.7-1.3 32.7-1.9 10-.5 21.9-1.5 26.5-2 4.6-.6 14.2-1.3 21.3-1.6 28-1 53.2-2.5 58-3.4 7.5-1.3 14.9-1.3 16.8.1"/></svg>