<svg xmlns="http://www.w3.org/2000/svg" width="1824" height="329.333" fill="#ffffffff" viewBox="0 0 1368 247"><path d="M381 46.1c-3.6.4-10.8 1.2-16 1.8-16 1.8-18.9 2.4-34.5 6.3-4.4 1.1-8.5 2.5-13 4.3-1.6.7-6.1 2.5-10 4-6.4 2.5-9.6 3.8-19.5 8.2-1.9.9-10.9 5.3-20 9.8s-19.2 9.2-22.5 10.4c-5.5 2.1-22 8.1-25.5 9.3-1.5.6-4.9 1.5-15 4.2-3 .8-10.2 2-16 2.6-5.8.7-13.9 1.6-18 2.1-4.1.6-10.4 1.2-14 1.5s-7.4.7-8.5 1-5.4 1-9.5 1.4c-4.1.5-11.8 1.6-17 2.5s-11.5 1.8-14 2.1-5.4.9-6.5 1.4-4.2 1.1-7 1.4c-2.7.3-7.5 1.2-10.5 2.2-3 .9-7.3 2-9.5 2.4-4.5.9-10 2.5-13 3.8-1.1.5-4.5 1.7-7.5 2.7s-5.9 2.2-6.5 2.6c-.5.5-1.7.9-2.7.9s-2.6.4-3.6.9c-.9.6-6 3.1-11.2 5.7-11.9 5.8-24.7 14-26.1 16.6-1.8 3.3.4 4 4.1 1.4 3.6-2.4 18.6-10.1 23-11.8 1.4-.5 3.8-1.6 5.3-2.4 1.6-.8 3.7-1.4 4.7-1.4s2.2-.5 2.5-1 1.5-1 2.6-1c1 0 2.7-.4 3.7-.9 3.1-1.5 11.9-4.1 14-4.1 1.2 0 2.4-.4 2.7-1 .3-.5 1.7-1 3.1-1s3.4-.5 4.5-1.1c2.2-1.1 9.3-2.6 17.9-3.7 3-.4 6.2-1.2 7-1.7 1.6-1 6.7-1.9 18.5-3.4 3.9-.5 10.8-1.4 15.5-2s9.2-1.4 10-1.7c.8-.4 5.8-1 11-1.4 5.2-.5 15.3-1.3 22.3-1.9 7.1-.6 16.8-1.5 21.5-2.1 4.8-.5 14.8-1 22.2-1 8.1 0 14.9-.5 17-1.3 2-.6 7.2-3.8 11.7-7 4.5-3.1 8.5-5.7 8.8-5.7.2 0 3.5-1.9 7.2-4.2 13.8-8.4 35-19.8 36.9-19.8.5 0 3.2-1.1 5.9-2.5 2.8-1.3 5.7-2.5 6.5-2.5s4.7-1.2 8.5-2.5c3.9-1.4 8-2.5 9.2-2.5s2.5-.5 2.8-1c.3-.6 2-1 3.6-1 1.7 0 4-.5 5.2-1.2s4.6-1.6 7.5-2c2.8-.4 7.6-1.2 10.5-1.7C380 56.9 397.2 55 408 55c8.8 0 31.2 1.9 38 3.2 3 .6 8 1.4 11 1.9 14.7 2.2 23.7 4.2 27.2 6 1 .5 2.6.9 3.6.9 3 0 13.4 4.4 14.5 6.2.8 1.2.6 2.7-.7 5.7-2.3 5.1-5.1 7.5-10.1 9.1-2.2.6-5.4 1.6-7.1 2.1s-4.6.9-6.5.9-5.2.5-7.4 1.1c-5.1 1.3-31.6 4-53 5.4-11.2.7-22.4 2.5-23.2 3.8-.3.5 0 1.4.6 2 .8.8 3.1.8 8.4-.1 4.1-.7 19.3-1.7 33.8-2.2 14.5-.6 33.6-1.4 42.4-1.9s32.6-1 52.9-1.1c20.3 0 37.4-.4 37.9-.7.6-.3 11.6-1 24.6-1.4 24.2-.8 34.1-1.8 37.9-3.8 1.1-.6 3.5-1.1 5.2-1.1q4.65 0 10.8-5.4c4.3-3.8 1.7-6.3-3.2-3.1-2.8 1.8-12.6 2.4-23.3 1.4-8.1-.8-12.8-1.6-24.8-4.4-3.8-.9-9-2-11.5-2.5-2.5-.4-7.2-1.5-10.5-2.5-3.3-.9-8-2.1-10.5-2.6-7.8-1.4-12.6-2.5-13.8-3.3-.7-.4-3.3-1.1-6-1.6-2.6-.5-7.6-1.6-11.2-2.5-6.7-1.7-13-3-19-4-1.9-.4-4.4-1-5.5-1.5-3.5-1.6-19.6-4.6-32.3-6-4.5-.5-8.7-1.2-9.3-1.5-1.1-.8-12.6-2.1-29.9-3.5-6.3-.5-15.1-1.4-19.5-1.9-9.1-1.1-27.9-1.1-37.5 0"/><path d="M352.6 74.2c-.7 1.8-2.1 6.2-3 9.8-4.2 16.7-4.1 16.4-7.7 17.7-1.9.7-5 1.2-6.9 1.2-1.9.1-5.1.6-7 1.1-1.9.6-7.5 1.5-12.5 2.1-4.9.5-11.7 1.4-15 1.9-9.8 1.6-21.5 3.1-29.7 3.8-8 .7-9.9 1.5-8.1 3.3 1.4 1.4 15.2.7 30.3-1.5 6.3-.9 17.1-2.1 24-2.6 6.9-.6 13.2-1.3 14-1.6.8-.4 6-1 11.5-1.3 10-.6 10-.6 10.7-11.8.4-6.1 1.4-13.7 2.2-16.8 2.1-8.2.2-11.9-2.8-5.3m589.8 35.9c-.2.4.7 3.3 2.1 6.5 1.3 3.3 3.6 9.3 5 13.4 1.5 4.1 4.3 11.7 6.2 16.8 2 5.2 3.3 10.2 3 11.5-1.1 4.8-13.8 41.4-15.3 44-2.5 4.4-.9 5.3 8.6 4.9 5.1-.2 8.3-.8 8.5-1.5s1-3.5 1.8-6.2c4.9-17 7.2-23.5 8.1-23.2 1 .3 2.7 5.2 7.2 20.6 2.9 10.1 2.9 10.1 11 10.1 4.4 0 8.3-.3 8.6-.6s-3-11.1-7.3-24.1c-4.3-12.9-7.9-24.4-7.9-25.4 0-1.8 10-30.2 14.1-40.1 1-2.6 1.9-5.1 1.9-5.7 0-1.6-15.5-1.4-16.8.1-.5.7-3 7.1-5.4 14.2s-4.8 13.1-5.4 13.3c-.5.2-2.9-5.6-5.3-12.9s-4.9-13.8-5.5-14.5c-1.2-1.2-16.5-2.3-17.2-1.2M632 114.7c-3.3 7.7-7.2 9.8-21 11.2-11.9 1.2-20.9 2.6-24.6 3.6-1.5.5-3.5-.6-7.5-4-6.1-5.4-14.3-9.5-20.9-10.6-2.5-.4-6.2-1-8.3-1.4-7-1.4-24.2 2.6-32.2 7.3-4.9 2.9-16.9 14.5-19.7 19-3 4.9-6.6 6.2-19.6 7.2-27.7 2.1-37.9 3-40.3 3.5-3.9.9-30.6 3.3-58.9 5.4-8 .6-16.9 1.6-19.9 2.1-3 .6-8.2 1-11.5 1-6.3 0-19.5 1.1-41.1 3.5-7.1.8-23.1 2-35.5 2.5-12.4.6-23.8 1.3-25.5 1.6-3.6.6-32.9 3.2-51.5 4.5-7.4.5-16.7 1.2-20.7 1.6-7.2.5-7.2.5-13.5-5.9-7-7.2-14.7-12.8-17.5-12.8-1.1 0-2.4-.5-3.1-1.2-1.6-1.6-18.2-1.4-22.4.2-1.8.8-6.5 3.5-10.4 6.1-6.6 4.4-7.6 4.8-17 5.9-5.4.6-13.2 1.5-17.2 2.1-4 .5-11.3.9-16.2.9-8.6 0-11.4 1-9.3 3.1 1.5 1.5 27.9.6 65.7-2.1 12-.8 16.6-.8 18.8.1 3 1.2 18.8 21.6 18.8 24.4 0 .9-3.4 6.5-7.6 12.5-7.6 11-7.6 11-22.9 11-8.5 0-15.6.4-15.9.9-1.3 2 .8 4.1 7.5 7.6 6.9 3.6 6.9 3.6 18.2 3.2 16-.5 21.8-3.3 30.4-15.1 2.5-3.3 5-6.4 5.6-6.8 1.5-.9 83.4 0 104.2 1.2 9.4.5 35.2 1.2 57.5 1.5s50.2 1 62 1.5 39.9.9 62.3 1c40.4 0 57.8 1 62.7 3.5 11.6 5.9 15.2 7.3 25.1 9.5 10.1 2.3 22.9-1.1 36.7-9.7 2.9-1.8 5.6-3.3 6.1-3.3.4 0 1.6-.9 2.7-2.1 1.6-1.7 1.6-2.2.4-2.9-.8-.5-2.2-.8-3-.5-2.4.7-42 1.5-43.6.8-.8-.3-4.1-4.2-7.3-8.7-3.2-4.4-8.2-11-11-14.5-6.7-8.4-6.7-10.7-.1-18.9 2.7-3.4 7.7-10.2 11-15.1 3.8-5.7 6.9-9.2 8.7-9.9 2.8-1.1 16.4-1.7 56.3-2.7 23.6-.6 29.4-1.8 33.6-6.8 3.9-4.6 6.4-10.6 6.4-15.4 0-5.9-1.6-6.2-4-.6M489 162c1.1.7 1.6 3.3 1.8 10.7.2 5.4.7 10.7 1.1 11.8.5 1.1 2.3 5.1 4 8.9 1.8 3.7 3 7.4 2.7 8.2-.5 1.2-12.8 1.4-78.3 1.3-70.3 0-87.3-.5-79.3-2.2s18-3 29-3.9c21.4-1.6 32-2.6 46-4.3 18.1-2.2 31.2-3.4 45-4.3 12.6-.9 14.6-1.4 15.5-4.3 1.1-3.3-.4-5.7-4.9-7.9-3.6-1.7-5.5-2-10.2-1.5-3.3.4-24.8 1.1-47.9 1.6-100.6 2.2-117.2 2.7-121 3.3-2.2.4-15 1.2-28.5 1.7-40.7 1.8-54.9 2.7-67.5 4.4-24.6 3.4-29.4 3.2-29.5-1.2 0-3 2.8-3.8 14.3-4.1 6.4-.1 14-.7 16.8-1.2 2.9-.6 10.6-1 17.3-1s15.7-.4 20.1-.9 14.5-1.2 22.4-1.6c8-.3 14.9-.9 15.5-1.3s9.7-1 20.1-1.4c27.5-1 53.9-2.6 62.5-3.7 4.1-.6 12.4-1 18.3-1.1 6 0 12.7-.4 15-1 2.3-.5 11.6-1.2 20.7-1.5 27.1-.8 54.2-2.4 59.5-3.3 6.8-1.3 17.7-1.4 19.5-.2m175.7-51.4c-.4.4-.7 22.3-.7 48.6 0 47.8 0 47.8 8.5 47.8s8.5 0 8.5-31.8c0-17.4.4-32.3.9-33.1.6-1 1.9.8 4.7 6.3 2 4.2 4.1 7.9 4.5 8.1.4.3 2.2-2.3 3.9-5.8 4.1-7.9 5.5-9.9 6.3-9 .4.3.7 15.2.7 33 0 32.3 0 32.3 9 32.3s9 0 8.8-48.3c-.3-48.2-.3-48.2-9.8-48.5-9.6-.3-9.6-.3-13.5 7.4-2.2 4.3-4.4 7.7-5 7.7-.5 0-2.8-3.3-5-7.4-4-7.4-4-7.4-12.5-7.7-4.7-.1-8.9 0-9.3.4m80 .8c-8.8 3.3-15.1 9.7-18.2 18.5-2.2 6.3-2.2 49.4 0 56.9 2.1 6.9 6.9 13 13.5 16.9 4.8 3 6.2 3.3 13 3.3s8.2-.3 13-3.3c3-1.7 6.9-5.1 8.7-7.5 5.6-7.4 6.3-11.7 6.3-38.1-.1-26-.6-28.9-6.6-37.3s-20.3-12.9-29.7-9.4m14.1 18.4c3.4 2.7 4.2 7.7 4.2 28.7 0 21.8-.7 26.1-4.7 29.2-3.8 3.1-7.6 2.9-11.5-.6-3.3-2.9-3.3-2.9-3.3-28.6s0-25.7 2.8-28.1c3.4-2.9 9.1-3.2 12.5-.6m25.9-19.1c-.7 1.2.6 9 6.2 36.3 1.7 8.5 3.8 19.1 4.6 23.5.9 4.4 2 10.5 2.6 13.5 2.3 12 2.8 14.7 3.4 18.8.7 4.3.7 4.3 10.3 4s9.6-.3 10.4-4.3c.4-2.2 1.2-6.3 1.7-9 .6-2.8 1.5-7.7 2.1-11 .5-3.3 2.1-11.6 3.4-18.5 1.4-6.9 3.4-17.9 4.6-24.5s2.8-14.8 3.6-18.3c2.5-11.5 2.7-11.2-6.9-11.2-9.5 0-8-3.1-13.2 28-3.6 21.5-4.7 27-5.5 27-.9 0-2.4-6.9-5.5-26-1.4-8.5-3.1-18.4-3.8-22-1.3-6.5-1.3-6.5-9.4-6.8-4.5-.1-8.3.1-8.6.5m61.3.5c-.6 17.8-1.3 16.3 8.5 16.8 9 .5 9 .5 9 31s0 30.5-9 31c-8.9.5-8.9.5-8.9 8.5s0 8 27.7 8.3c27.7.2 27.7.2 27.7-8.2 0-8.5 0-8.5-8.7-8.8-8.8-.3-8.8-.3-9.6-29.7-.5-16.1-.6-29.9-.3-30.7.4-1.1 2.8-1.4 9.6-1.4 9 0 9 0 9-9s0-9-27.5-9c-21.3 0-27.5.3-27.5 1.2m158.6-.3c-.4.6-.7 22.3-.7 48.3.1 47.3.1 47.3 9.1 47.6 8.9.3 8.9.3 9.2-12.5s.3-12.8 9.3-13.4c14.1-1 19.1-3.4 24.5-11.9 3-4.7 3-4.7 3-23.6 0-17.4-.2-19.2-2.1-22.4-3.1-5.1-5.9-7.9-10.4-10.3-3.6-1.9-6-2.2-22.6-2.5-12.4-.3-18.9 0-19.3.7m32.2 18.7c3.9 2.7 5.2 6.7 5.2 15.9 0 10.2-1.6 14-6.5 16.1-4.2 1.7-10.7 1.8-12.3.2-1.3-1.3-1.8-31.9-.5-33.1 1.3-1.4 11.8-.7 14.1.9m29.2 27.9c0 26.1-.1 47.8-.2 48.2-.2.5 3.9.9 9 1.1 9.2.3 9.2.3 9.2-14.2 0-7.9.3-15.1.6-16 .8-2.1 6.9-2.1 11.8-.1 5.5 2.3 6.6 5.5 6.6 19 0 11.5 0 11.5 9.1 11.5s9.1 0 8.7-13.2c-.3-12.4-.5-13.7-3.2-19.1-2.5-4.8-2.8-6.1-1.8-7.5 4.3-6 5.2-10.2 5.2-24.6 0-13.3-.2-14.5-2.6-19.4-5.4-10.8-11.7-13.2-35.6-13.2-16.8 0-16.8 0-16.8 47.5m32.5-27.5c3.9 2.4 4.5 4.2 4.5 13.5 0 10.1-3.3 13.5-12.8 13.5-3.6 0-5.2-.4-5.6-1.6-1.2-3-.7-24.9.6-26.2 1.9-1.9 9.7-1.4 13.3.8m29.1-15.3c-.3 2.7-.4 24.4-.3 48.3.2 43.5.2 43.5 27.5 43.8 27.2.2 27.2.2 27.2-8.3s0-8.5-18.2-8.7c-18.3-.3-18.3-.3-18.6-11.9-.3-14-1.8-13 19.6-12.9 8.1.1 15.3.1 16 0 1 0 1.2-2 1-8.3-.3-8.2-.3-8.2-18.3-8.7s-18-.5-18-10 0-9.5 18-10 18-.5 18.3-9.3c.3-8.7.3-8.7-26.7-8.7-26.9 0-26.9 0-27.5 4.7m79.6-2.9c-6.9 2.5-14.6 9.9-16.7 16.1-5.3 15.5 2 29.5 20.2 38.9 4.5 2.4 9.9 5.8 11.9 7.7 3.3 3.1 3.6 3.9 3.1 7.2-1.3 8-10.6 11.2-16 5.5-2-2.1-2.7-3.9-2.9-8.2-.3-5.5-.3-5.5-8.3-6.1-5-.3-8.4-.1-9.2.5-1.5 1.4 0 14.3 2.2 18.6 2.6 5.1 7.6 10 12.6 12.6 7.2 3.6 17.7 3.4 25-.4 8.8-4.6 14.9-14.6 14.9-24.3 0-10.2-6.9-18.5-21.9-26.4-12.5-6.6-15.1-9.2-15.1-15.4 0-8.6 6.8-13.3 13.8-9.7 4.2 2.2 4.6 3 5.2 12.1.5 8 .5 8 9.3 8.3 8.7.3 8.7.3 8.7-6.9 0-3.9-.7-9.5-1.5-12.3-4.2-14.4-21-22.9-35.3-17.8m64.1-.9c-8 2.1-16.2 9.2-19.3 16.9-2.2 5.6-1.5 16.8 1.6 22.9 3 6.3 7.7 10.2 19.8 16.9 13.6 7.5 16.6 12.7 11 19.3-5.8 6.9-16.4 2.2-16.4-7.2 0-7.1-.1-7.2-8.7-7.1-9.2.2-9.8.9-8.8 9.7.8 7.2 3.2 12.3 8.1 17.3 10.5 10.4 28.8 10 39.1-.8 7.5-7.8 9.5-20 4.8-29.4-2.9-5.8-8.3-10.2-20.3-16.5-10.4-5.4-14.2-9.4-14.2-15 0-3.4.6-4.7 3.5-7.6 3.1-3.1 4-3.5 7.1-3 6.6 1.1 9.4 5.8 9.4 15.7 0 6 0 6 8.5 6s8.5 0 8.5-8.8c0-10.8-2.5-16.8-9.5-23-6.4-5.6-16.5-8.3-24.2-6.3"/></svg>